<?xml version="1.0" standalone="no"?>
<!DOCTYPE svg PUBLIC "-//W3C//DTD SVG 20010904//EN"
 "http://www.w3.org/TR/2001/REC-SVG-20010904/DTD/svg10.dtd">
<svg version="1.0" xmlns="http://www.w3.org/2000/svg"
 width="1280.000000pt" height="964.000000pt" viewBox="0 0 1280.000000 964.000000"
 preserveAspectRatio="xMidYMid meet">
<metadata>
Created by potrace 1.15, written by Peter Selinger 2001-2017
</metadata>
<g transform="translate(0.000000,964.000000) scale(0.100000,-0.100000)"
fill="#000000" stroke="none">
<path d="M10341 9624 c-13 -9 -29 -32 -37 -50 -34 -82 -2 -416 96 -989 71
-420 63 -587 -34 -680 -53 -51 -96 -64 -254 -75 -70 -5 -144 -14 -166 -20
-101 -30 -155 16 -447 376 -258 318 -369 395 -612 425 -151 19 -249 4 -378
-58 -609 -291 -3113 -1837 -4861 -3000 -1484 -987 -2278 -1588 -2427 -1835
-51 -86 -64 -256 -31 -419 37 -180 101 -333 289 -688 106 -199 171 -356 154
-371 -4 -3 -136 4 -293 16 -207 17 -316 31 -400 50 -140 32 -395 120 -590 203
-227 97 -251 105 -282 93 -43 -17 -59 -53 -65 -139 -10 -150 50 -361 171 -603
185 -370 407 -629 608 -709 170 -68 216 -205 154 -461 -22 -87 -26 -128 -26
-240 1 -166 29 -371 57 -408 28 -37 68 -48 108 -29 66 31 430 542 618 867 27
47 51 87 53 89 2 3 15 -6 28 -18 l23 -22 33 41 33 42 -31 24 -31 25 49 73
c113 169 211 246 311 246 110 0 184 -37 379 -192 423 -337 563 -420 730 -435
51 -4 77 -1 120 16 264 99 2579 1616 4595 3009 1470 1016 2375 1684 2581 1904
50 53 65 78 85 139 21 65 24 91 23 214 -1 161 -10 212 -103 553 -33 122 -70
268 -81 323 -23 114 -28 263 -10 329 17 65 71 180 84 180 6 0 72 -27 146 -59
74 -33 176 -72 225 -86 164 -47 516 -98 880 -126 217 -17 721 -18 800 -1 91
19 147 50 169 95 38 80 -13 150 -159 218 -44 20 -145 67 -224 103 -166 77
-306 156 -406 232 -71 53 -208 188 -238 235 -16 24 -16 27 4 65 37 73 16 115
-103 205 -211 158 -227 193 -164 362 55 145 66 197 54 251 -27 127 -218 275
-623 482 -232 119 -485 234 -529 241 -20 2 -40 -2 -55 -13z"/>
</g>
</svg>
